<svg xmlns="http://www.w3.org/2000/svg" width="793" height="315" viewBox="0 0 793 315" version="1.1"><path d="M 348.500 35.724 C 346.850 35.968, 344.825 36.735, 344 37.429 C 343.175 38.122, 340.507 39.463, 338.072 40.408 C 333.498 42.183, 326 48.977, 326 51.346 C 326 52.085, 325.212 53.407, 324.250 54.282 C 323.288 55.158, 321.624 57.590, 320.553 59.687 C 319.482 61.784, 316.511 65.976, 313.950 69.003 C 311.389 72.029, 308.318 76.416, 307.126 78.753 C 305.934 81.089, 304.540 83, 304.027 83 C 303.514 83, 302.660 84.463, 302.129 86.250 C 300.687 91.109, 297.500 99.530, 293.709 108.500 C 291.243 114.335, 289.483 117.041, 287.205 118.500 C 281.231 122.326, 278.114 133.999, 281.524 139.772 C 282.501 141.425, 283.021 143.502, 282.681 144.389 C 281.873 146.493, 275.173 146.614, 274.376 144.538 C 273.584 142.473, 270.174 141.610, 268.452 143.040 C 267.645 143.709, 267 145.946, 267 148.073 C 267 150.543, 266.432 152.218, 265.399 152.797 C 264.047 153.553, 263.762 156.266, 263.566 170.226 C 263.349 185.667, 263.185 186.950, 261.084 189.630 C 258.148 193.376, 256.805 193.846, 248.789 193.930 C 243.425 193.986, 241.719 193.618, 240.289 192.097 C 239.305 191.050, 237.375 190.038, 236 189.847 C 233.746 189.534, 233.469 189.881, 233.182 193.379 C 233.007 195.512, 233.399 198.550, 234.054 200.130 C 234.906 202.187, 234.938 203.369, 234.169 204.296 C 233.395 205.228, 233.489 206.697, 234.504 209.545 C 235.278 211.720, 235.932 214.759, 235.956 216.298 C 235.996 218.854, 240.638 224.324, 247.404 229.789 C 248.282 230.499, 249 231.869, 249 232.835 C 249 234.704, 257.345 239.349, 266.500 242.576 C 272.602 244.727, 274.649 246.396, 277.116 251.229 C 279.396 255.696, 283.437 258, 288.990 258 C 293.552 258, 300.435 254.924, 301.868 252.246 C 303.141 249.868, 303.521 244.009, 302.586 241.178 C 301.618 238.246, 304.028 235.372, 308.227 234.450 C 312.045 233.612, 317.949 230.166, 318.162 228.651 C 318.252 228.018, 318.364 225.925, 318.412 224 C 318.497 220.631, 318.630 220.511, 321.976 220.784 C 323.887 220.941, 326.951 221.953, 328.783 223.034 C 332.549 225.256, 336.037 225.563, 337.776 223.824 C 338.678 222.922, 339.419 223.069, 340.951 224.456 C 342.484 225.843, 343.866 226.117, 346.885 225.634 C 350.548 225.049, 351.141 225.315, 355.411 229.465 C 357.935 231.918, 360 234.601, 360 235.428 C 360 238.296, 363.597 239.180, 370.079 237.905 C 377.442 236.456, 378.857 237.345, 376.295 241.809 C 374.635 244.701, 374.624 245.052, 376.140 246.568 C 377.953 248.381, 382 247.727, 382 245.621 C 382 244.936, 383.350 243.378, 385 242.158 C 388.754 239.382, 388.985 235.692, 385.545 233.437 C 383.453 232.067, 383.267 231.545, 384.286 229.914 C 385.625 227.769, 388.025 227.425, 389.733 229.133 C 391.495 230.895, 394.252 229.368, 393.512 227.039 C 392.864 224.995, 393.200 224.756, 404.797 219.029 L 409.094 216.907 414.632 220.076 C 420.092 223.199, 420.242 223.225, 425.322 221.866 C 431.358 220.253, 432.336 218.143, 428.639 214.717 C 423.958 210.378, 424.660 204.013, 429.821 203.994 C 430.745 203.990, 432.850 203.248, 434.500 202.344 C 436.150 201.440, 440.096 200.366, 443.269 199.957 C 446.442 199.548, 449.777 198.603, 450.681 197.857 C 453.814 195.271, 456.086 188.184, 456.648 179.245 C 456.967 174.158, 458.056 168.200, 459.252 165 C 460.907 160.567, 461.352 156.761, 461.544 145.388 C 461.674 137.627, 462.242 130.415, 462.806 129.363 C 463.421 128.213, 463.478 126.818, 462.947 125.870 C 462.462 125.003, 461.954 121.414, 461.820 117.896 C 461.642 113.234, 460.974 110.608, 459.355 108.209 C 458.091 106.336, 456.835 102.458, 456.439 99.209 C 455.726 93.345, 454.126 89.307, 450.846 85.099 C 449.279 83.088, 449.080 81.674, 449.623 76.380 C 450.551 67.316, 448.894 65, 441.477 65 C 438.465 65, 436 65.450, 436 66 C 436 66.550, 434.875 67, 433.500 67 C 432.125 67, 430.983 67.563, 430.962 68.250 C 430.907 70.083, 424.032 61.792, 424.015 59.872 C 424.007 58.977, 424.683 56.611, 425.517 54.614 C 429.979 43.934, 419.507 40.285, 410.624 49.426 C 405.249 54.956, 402.689 55.821, 400.585 52.818 C 399.713 51.573, 398.985 48.743, 398.967 46.527 C 398.917 40.554, 394.369 36, 388.451 36 C 386.977 36, 383.624 37.168, 381 38.597 C 377.147 40.694, 375.835 40.982, 374.180 40.097 C 373.053 39.493, 370.402 39, 368.288 39 C 366.174 39, 363.473 38.319, 362.285 37.487 C 359.956 35.856, 353.340 35.010, 348.500 35.724 M 491.558 43.906 C 490.489 45.635, 477.942 50.915, 476.351 50.305 C 475.402 49.940, 474.376 50.363, 473.827 51.346 C 473.317 52.255, 472.123 53, 471.173 53 C 469.103 53, 465 55.717, 465 57.088 C 465 59.452, 468.111 58.955, 470.849 56.155 C 472.680 54.281, 474.503 53.304, 475.650 53.580 C 476.668 53.825, 478.625 53.373, 480 52.577 C 481.375 51.780, 484.816 49.964, 487.648 48.540 C 493.421 45.637, 496.293 43, 493.681 43 C 492.822 43, 491.866 43.408, 491.558 43.906 M 486.631 52.518 C 486.319 53.333, 486.314 54.654, 486.620 55.453 C 487.069 56.622, 487.551 56.673, 489.089 55.712 C 491.497 54.209, 491.500 53.338, 489.100 52.053 C 487.662 51.284, 487.062 51.397, 486.631 52.518 M 432.667 54.667 C 431.697 55.637, 431.850 58, 432.883 58 C 433.369 58, 434.002 57.100, 434.290 56 C 434.804 54.034, 433.978 53.356, 432.667 54.667 M 349 66.393 C 329.832 73.229, 311.474 86.375, 308.987 95.044 C 307.509 100.200, 307.792 107.753, 309.566 110.460 C 312.797 115.391, 323.539 116.550, 330.821 112.753 L 335.141 110.500 337.321 113.095 C 340.069 116.367, 342.395 117.204, 346.568 116.421 C 349.502 115.871, 350.138 115.121, 352.310 109.651 C 354.325 104.578, 355.546 103.004, 359.276 100.668 C 361.763 99.111, 365.756 97.603, 368.149 97.318 C 371.578 96.910, 373.242 95.984, 376 92.948 C 380.190 88.337, 386.247 86.595, 387.424 89.663 C 387.933 90.989, 387.259 92.273, 384.988 94.302 L 381.849 97.107 383.424 101.732 C 385.966 109.191, 385.402 115.214, 380.777 129.999 L 376.553 143.500 367.526 152.500 C 362.561 157.450, 355.236 163.924, 351.249 166.887 C 346.773 170.214, 344 172.988, 344 174.137 C 344 175.245, 343.290 176, 342.250 176 C 341.288 176, 339.183 177.688, 337.574 179.750 C 335.965 181.813, 333.153 184.770, 331.324 186.323 C 329.496 187.875, 327.993 189.900, 327.985 190.823 C 327.972 192.165, 327.795 192.225, 327.096 191.122 C 326.616 190.364, 325.716 190.058, 325.095 190.441 C 324.475 190.824, 324.226 191.557, 324.543 192.069 C 324.859 192.581, 324.224 193, 323.131 193 C 321.771 193, 319.977 194.923, 317.441 199.096 L 313.738 205.193 316.246 207.700 L 318.753 210.207 341.626 210.541 C 354.207 210.725, 375.599 211.157, 389.165 211.501 C 412.726 212.099, 414.002 212.036, 417.665 210.086 C 424.827 206.274, 425 205.986, 425 197.827 C 425 190.988, 424.773 190.162, 422.250 187.797 C 418.091 183.899, 411.855 181.140, 404.264 179.838 C 399.146 178.961, 396.988 178.085, 395.684 176.357 C 394.009 174.136, 394.036 173.864, 396.389 169.274 C 397.734 166.648, 401.159 162.250, 403.998 159.500 C 406.838 156.750, 410.006 152.868, 411.038 150.873 C 412.070 148.879, 413.612 146.979, 414.463 146.653 C 416.903 145.716, 426 125.379, 426 120.861 C 426 118.447, 425.532 116.994, 424.750 116.985 C 423.795 116.973, 423.809 116.774, 424.808 116.140 C 426.618 114.992, 426.135 102.696, 424.086 97.756 C 422.933 94.977, 422.022 94.054, 420.750 94.373 C 419.788 94.615, 419 94.378, 419 93.847 C 419 93.316, 418.550 93.160, 418 93.500 C 417.450 93.840, 417 93.416, 417 92.559 C 417 91.702, 417.450 91, 418 91 C 418.550 91, 419 91.450, 419 92 C 419 92.550, 419.499 93, 420.108 93 C 424.855 93, 410.117 73.188, 402.383 69.172 C 398.045 66.919, 377.689 64, 366.575 64.037 C 357.595 64.068, 354.271 64.513, 349 66.393 M 215.500 131.917 C 205.677 134.482, 201.570 140.392, 202.175 151.091 C 202.510 157.024, 202.956 158.353, 205.531 161.090 C 208.968 164.744, 213.680 167, 217.876 167 C 219.876 167, 222.584 168.439, 226.341 171.500 C 229.379 173.975, 232.705 176, 233.733 176 C 234.760 176, 236.176 176.563, 236.880 177.250 C 237.918 178.263, 238.061 177.553, 237.635 173.500 C 237.346 170.750, 237.017 164.754, 236.905 160.176 C 236.564 146.320, 233.992 136.845, 230.635 137.079 C 229.847 137.134, 229.864 137.306, 230.689 137.642 C 231.496 137.970, 231.197 138.909, 229.758 140.563 C 227.616 143.027, 224.837 144.106, 226.836 141.698 C 227.430 140.982, 227.658 139.407, 227.342 138.198 C 226.976 136.799, 227.221 136, 228.018 136 C 230.268 136, 224.237 131.994, 221.331 131.558 C 219.774 131.325, 217.150 131.486, 215.500 131.917 M 208.965 267.250 C 203.862 269.825, 202.029 272.798, 202.029 278.500 C 202.029 283.675, 203.716 286.892, 207.912 289.720 C 214.216 293.968, 223.383 292.103, 227.750 285.684 C 231.934 279.534, 229.718 271.238, 222.759 266.995 C 218.508 264.403, 214.459 264.477, 208.965 267.250" stroke="none" fill="#9d1c1b" fill-rule="evenodd"/><path d="M 349 66.393 C 329.832 73.229, 311.474 86.375, 308.987 95.044 C 307.509 100.200, 307.792 107.753, 309.566 110.460 C 312.797 115.391, 323.539 116.550, 330.821 112.753 L 335.141 110.500 337.321 113.095 C 340.069 116.367, 342.395 117.204, 346.568 116.421 C 349.502 115.871, 350.138 115.121, 352.310 109.651 C 354.325 104.578, 355.546 103.004, 359.276 100.668 C 361.763 99.111, 365.756 97.603, 368.149 97.318 C 371.578 96.910, 373.242 95.984, 376 92.948 C 380.190 88.337, 386.247 86.595, 387.424 89.663 C 387.933 90.989, 387.259 92.273, 384.988 94.302 L 381.849 97.107 383.424 101.732 C 385.966 109.191, 385.402 115.214, 380.777 129.999 L 376.553 143.500 367.526 152.500 C 362.561 157.450, 355.236 163.924, 351.249 166.887 C 346.773 170.214, 344 172.988, 344 174.137 C 344 175.245, 343.290 176, 342.250 176 C 341.288 176, 339.183 177.688, 337.574 179.750 C 335.965 181.813, 333.153 184.770, 331.324 186.323 C 329.496 187.875, 327.993 189.900, 327.985 190.823 C 327.972 192.165, 327.795 192.225, 327.096 191.122 C 326.616 190.364, 325.716 190.058, 325.095 190.441 C 324.475 190.824, 324.226 191.557, 324.543 192.069 C 324.859 192.581, 324.224 193, 323.131 193 C 321.771 193, 319.977 194.923, 317.441 199.096 L 313.738 205.193 316.246 207.700 L 318.753 210.207 341.626 210.541 C 354.207 210.725, 375.599 211.157, 389.165 211.501 C 412.726 212.099, 414.002 212.036, 417.665 210.086 C 424.827 206.274, 425 205.986, 425 197.827 C 425 190.988, 424.773 190.162, 422.250 187.797 C 418.091 183.899, 411.855 181.140, 404.264 179.838 C 399.146 178.961, 396.988 178.085, 395.684 176.357 C 394.009 174.136, 394.036 173.864, 396.389 169.274 C 397.734 166.648, 401.159 162.250, 403.998 159.500 C 406.838 156.750, 410.006 152.868, 411.038 150.873 C 412.070 148.879, 413.612 146.979, 414.463 146.653 C 416.903 145.716, 426 125.379, 426 120.861 C 426 118.447, 425.532 116.994, 424.750 116.985 C 423.795 116.973, 423.809 116.774, 424.808 116.140 C 426.618 114.992, 426.135 102.696, 424.086 97.756 C 422.933 94.977, 422.022 94.054, 420.750 94.373 C 419.788 94.615, 419 94.378, 419 93.847 C 419 93.316, 418.550 93.160, 418 93.500 C 417.450 93.840, 417 93.416, 417 92.559 C 417 91.702, 417.450 91, 418 91 C 418.550 91, 419 91.450, 419 92 C 419 92.550, 419.499 93, 420.108 93 C 424.855 93, 410.117 73.188, 402.383 69.172 C 398.045 66.919, 377.689 64, 366.575 64.037 C 357.595 64.068, 354.271 64.513, 349 66.393 M 400.032 84.750 C 400.072 85.697, 402.551 89, 403.222 89 C 403.497 89, 403.508 87.875, 403.245 86.500 C 402.828 84.320, 399.947 82.751, 400.032 84.750 M 160.520 91.700 C 149.158 92.048, 148.396 92.205, 145.770 94.721 C 143.310 97.077, 143 98.089, 143 103.753 C 143 107.261, 143.424 110.924, 143.943 111.893 C 144.568 113.062, 144.359 116.155, 143.320 121.078 C 141.748 128.532, 141.901 144.585, 143.867 178.397 C 144.463 188.656, 144.654 189.410, 147.130 191.253 C 148.858 192.540, 151.944 193.369, 156.130 193.673 C 161.738 194.079, 162.843 193.852, 165.367 191.768 C 168.199 189.430, 168.250 189.197, 169.468 173.025 C 170.692 156.777, 170.724 156.632, 173.601 154.330 C 176.013 152.400, 177.681 152.009, 183.527 152.005 C 193.596 151.998, 195 150.785, 195 142.098 C 195 133.799, 193.538 132, 186.794 132 C 181.760 132, 180.822 132.759, 179.049 138.261 C 178.365 140.386, 176.402 143.117, 174.538 144.539 C 172.622 146, 170.990 148.301, 170.644 150.028 C 169.948 153.510, 167.637 153.882, 164.250 151.056 C 161.491 148.754, 161.337 144.748, 163.872 141.154 C 167.392 136.162, 170.979 128.110, 170.380 126.547 C 169.506 124.270, 170.834 118.309, 172.611 116.532 C 173.453 115.689, 175.798 114.984, 177.821 114.965 C 184.955 114.897, 197.419 112.148, 198.732 110.352 C 200.209 108.332, 200.420 99.235, 199.072 95.691 C 198.268 93.574, 197.309 93.164, 191.822 92.594 C 181.739 91.545, 173.356 91.306, 160.520 91.700 M 471.049 92 C 468.364 93.791, 468.037 98.411, 467.786 138.140 C 467.504 182.655, 467.862 186.537, 472.328 187.440 C 477.558 188.498, 494.957 188.990, 497.122 188.141 C 498.430 187.628, 501.525 186.625, 504 185.913 C 513.900 183.062, 524.063 173.260, 528.513 162.268 C 530.925 156.313, 531.316 153.778, 531.768 141.168 C 532.408 123.309, 531.393 118.282, 525.321 109.248 C 516.413 95.990, 507.883 92.185, 486.149 91.772 C 478.257 91.623, 471.462 91.725, 471.049 92 M 681.176 93.357 C 679.661 95.036, 679.500 99.472, 679.500 139.503 C 679.500 180.445, 679.634 183.939, 681.267 185.744 C 682.748 187.379, 684.879 187.795, 694.394 188.305 C 704.696 188.857, 706.516 188.679, 713.936 186.401 C 725.246 182.927, 733.597 175.626, 739.141 164.365 C 741.754 159.057, 742.482 156.058, 743.189 147.696 C 744.206 135.669, 743.381 121.908, 741.350 117.012 C 736.933 106.363, 728.262 97.912, 717.798 94.056 C 713.624 92.518, 709.354 92.039, 697.676 91.802 C 684.275 91.529, 682.692 91.678, 681.176 93.357 M 546.389 92.980 C 545.228 93.449, 543.958 94.658, 543.567 95.666 C 542.711 97.876, 542.726 112.335, 543.629 153.450 L 544.309 184.399 546.721 186.812 C 549.119 189.210, 549.232 189.222, 566.671 188.841 C 583.631 188.472, 584.272 188.382, 586.105 186.119 C 588.527 183.128, 588.732 173.490, 586.443 170.223 C 585.066 168.256, 584 167.998, 577.193 167.985 C 568.887 167.968, 567.899 167.640, 566.150 164.316 C 564.606 161.383, 564.701 157.651, 566.425 153.526 C 567.772 150.302, 568.189 150.078, 574.070 149.413 C 582.354 148.475, 584 146.781, 584 139.191 C 584 135.996, 583.438 132.614, 582.750 131.675 C 581.974 130.616, 579.033 129.577, 575 128.937 C 570.294 128.191, 568.023 127.298, 566.772 125.703 C 564.656 123.005, 564.607 121.876, 566.418 117.541 C 567.684 114.511, 568.355 114.081, 572.668 113.530 C 583.149 112.190, 583.673 112.014, 584.847 109.436 C 586.303 106.241, 586.316 101.786, 584.883 97.003 L 583.765 93.274 576.232 92.637 C 565.819 91.757, 548.936 91.951, 546.389 92.980 M 626.500 93.730 C 621.247 94.483, 619.299 97.379, 616.986 107.874 C 615.819 113.168, 614.043 120.425, 613.039 124 C 612.036 127.575, 610.209 134.100, 608.979 138.500 C 607.749 142.900, 604.611 153.025, 602.005 161 C 594.132 185.088, 594.415 189, 604.024 189 C 610.756 189, 613.170 187.633, 616.035 182.200 C 619.788 175.082, 621.252 174, 627.134 174 C 629.958 174, 634.023 173.474, 636.169 172.831 C 642.013 171.080, 645.934 173.302, 649.360 180.303 C 652.871 187.479, 654 188.286, 660.538 188.286 C 666.950 188.286, 670 186.222, 670 181.883 C 670 178.166, 666.179 167.822, 664.237 166.280 C 663.066 165.351, 662.660 162.732, 662.531 155.280 C 662.404 147.946, 661.805 144, 660.135 139.500 C 658.909 136.200, 656.094 127.425, 653.878 120 C 651.662 112.575, 649.412 105.038, 648.878 103.252 C 646.412 95.005, 639.151 91.916, 626.500 93.730 M 80 94.612 C 73.533 95.770, 73.081 96.046, 72.157 99.395 C 71.221 102.785, 72.358 171.190, 73.560 183.739 C 74.048 188.842, 74.622 190.344, 76.713 191.989 C 79.098 193.865, 80.744 194, 101.185 194 C 128.059 194, 128.470 193.871, 129.486 185.123 C 130.731 174.394, 127.265 171.465, 114.572 172.522 L 106.076 173.230 102.913 170.067 C 100.136 167.290, 99.815 166.416, 100.285 162.914 C 101.251 155.713, 102.853 154.380, 111.484 153.598 C 121.765 152.666, 123.713 151.661, 124.522 146.869 C 125.478 141.210, 124.206 135.181, 121.783 133.884 C 120.662 133.284, 116.200 132.550, 111.866 132.253 C 104.267 131.733, 103.913 131.596, 101.952 128.422 C 100.063 125.367, 100.025 124.876, 101.414 121.552 C 103.205 117.265, 103.145 117.290, 114.500 116.042 C 125.886 114.790, 127.486 113.330, 126.722 104.884 C 125.804 94.738, 126.297 95.001, 108.215 94.991 C 99.572 94.987, 90.250 94.799, 87.500 94.574 C 84.750 94.349, 81.375 94.366, 80 94.612 M 6.056 96.673 C 2.215 99.363, 0.649 106.163, 1.307 117.284 C 1.640 122.903, 2.440 130.068, 3.086 133.207 C 3.922 137.277, 3.964 140.146, 3.231 143.207 C 1.728 149.486, 2.478 186.139, 4.183 189.696 C 5.347 192.125, 6.315 192.602, 11.512 193.305 C 14.805 193.751, 25.207 193.953, 34.627 193.754 C 55.994 193.301, 57 192.867, 57 184.102 C 57 180.883, 56.730 176.902, 56.401 175.255 L 55.802 172.260 45.183 171.548 C 39.343 171.157, 33.772 170.413, 32.805 169.896 C 28.796 167.750, 28.516 165.562, 28 132.276 C 27.405 93.935, 28.141 96.121, 15.665 95.645 C 10.454 95.446, 7.331 95.780, 6.056 96.673 M 221.243 96.724 C 215.837 97.394, 213.690 103.745, 216.026 112.155 C 216.959 115.513, 217.468 115.910, 222.271 117.032 C 231.802 119.260, 233.785 120.464, 234.850 124.674 C 235.383 126.778, 236.134 137.725, 236.518 149 C 236.903 160.275, 237.357 170.625, 237.526 172 C 237.695 173.375, 237.871 177.903, 237.917 182.061 C 238.031 192.402, 239.519 194.027, 248.789 193.930 C 256.843 193.845, 258.143 193.383, 261.167 189.524 L 263.500 186.549 263.500 154.024 C 263.500 116.161, 263.316 117, 271.606 117 C 275.276 117, 277.478 116.412, 279.365 114.927 C 281.710 113.083, 282 112.166, 282 106.602 C 282 101.358, 281.626 99.998, 279.686 98.174 C 277.420 96.046, 276.811 96.003, 250.936 96.160 C 236.396 96.248, 223.034 96.502, 221.243 96.724 M 490.923 115.923 L 488 118.846 488.004 138.173 C 488.007 155.676, 488.194 157.807, 489.989 160.750 C 493.826 167.043, 503.679 163.101, 508.110 153.500 C 510.278 148.802, 510.749 131.534, 508.862 125.899 C 506.595 119.130, 500.233 113, 495.473 113 C 494.578 113, 492.531 114.315, 490.923 115.923 M 704.482 113.945 C 700.178 115.691, 699.500 119.111, 699.500 139.075 C 699.500 156.723, 699.629 158.020, 701.643 160.675 C 705.765 166.109, 714.804 163.027, 719.270 154.666 C 721.207 151.038, 721.490 149.014, 721.459 139 C 721.427 128.518, 721.186 127.044, 718.747 122.354 C 717.180 119.339, 714.661 116.336, 712.668 115.104 C 709.023 112.851, 707.656 112.658, 704.482 113.945 M 631.511 132.250 C 630.350 135.656, 628 146.022, 628 147.739 C 628 152.894, 634.059 153.610, 637.393 148.849 C 639.410 145.969, 639.407 144.080, 637.368 136.816 C 636.113 132.342, 635.298 131, 633.837 131 C 632.792 131, 631.745 131.563, 631.511 132.250 M 227.342 138.198 C 227.658 139.407, 227.430 140.982, 226.836 141.698 C 224.905 144.025, 227.578 143.071, 229.642 140.696 C 231.259 138.838, 231.398 138.161, 230.365 137.196 C 228.282 135.250, 226.707 135.772, 227.342 138.198" stroke="none" fill="#faf8f8" fill-rule="evenodd"/></svg>